HIERARCHY
ROOT joint_Root
{
	OFFSET 0.0 0.0 0.0
	CHANNELS 6 Xposition Yposition Zposition Zrotation Xrotation Yrotation 
	JOINT Hips
	{
		OFFSET 4.5925 91.4895 -427.239
		CHANNELS 6 Xposition Yposition Zposition Zrotation Xrotation Yrotation 
		JOINT Spine
		{
			OFFSET 15.7357 0.0 0.0
			CHANNELS 6 Xposition Yposition Zposition Zrotation Xrotation Yrotation 
			JOINT Chest
			{
				OFFSET 8.98455 -0.406207 0.0
				CHANNELS 6 Xposition Yposition Zposition Zrotation Xrotation Yrotation 
				JOINT Neck
				{
					OFFSET 16.3773 0.0 0.0
					CHANNELS 6 Xposition Yposition Zposition Zrotation Xrotation Yrotation 
					JOINT Head
					{
						OFFSET 6.45672 0.0 0.0
						CHANNELS 6 Xposition Yposition Zposition Zrotation Xrotation Yrotation 
						End Site
						{
							OFFSET 0.0 0.0 0.0
						}
					}
				}
				JOINT Shoulder_L
				{
					OFFSET 12.9942 -0.242716 4.98039
					CHANNELS 6 Xposition Yposition Zposition Zrotation Xrotation Yrotation 
					JOINT UpperArm_L
					{
						OFFSET 5.34809 0.0 0.0
						CHANNELS 6 Xposition Yposition Zposition Zrotation Xrotation Yrotation 
						JOINT LowerArm_L
						{
							OFFSET 24.3286 1.87007e-05 0.0
							CHANNELS 6 Xposition Yposition Zposition Zrotation Xrotation Yrotation 
							JOINT Hand_L
							{
								OFFSET 22.2916 0.0 0.0
								CHANNELS 6 Xposition Yposition Zposition Zrotation Xrotation Yrotation 
								End Site
								{
									OFFSET 0.0 0.0 0.0
								}
							}
						}
					}
				}
				JOINT Shoulder_R
				{
					OFFSET 12.9945 -0.242716 -4.98039
					CHANNELS 6 Xposition Yposition Zposition Zrotation Xrotation Yrotation 
					JOINT UpperArm_R
					{
						OFFSET -5.34813 0.0 0.0
						CHANNELS 6 Xposition Yposition Zposition Zrotation Xrotation Yrotation 
						JOINT LowerArm_R
						{
							OFFSET -24.3289 0.000322201 0.0
							CHANNELS 6 Xposition Yposition Zposition Zrotation Xrotation Yrotation 
							JOINT Hand_R
							{
								OFFSET -22.2915 -0.000108084 0.0
								CHANNELS 6 Xposition Yposition Zposition Zrotation Xrotation Yrotation 
								End Site
								{
									OFFSET 0.0 0.0 0.0
								}
							}
						}
					}
				}
			}
		}
		JOINT UpperLeg_L
		{
			OFFSET -2.19248 -6.46944 0.0
			CHANNELS 6 Xposition Yposition Zposition Zrotation Xrotation Yrotation 
			JOINT LowerLeg_L
			{
				OFFSET 39.0811 0.0 -1.23785e-05
				CHANNELS 6 Xposition Yposition Zposition Zrotation Xrotation Yrotation 
				JOINT Foot_L
				{
					OFFSET 40.9854 0.0 -1.26872e-05
					CHANNELS 6 Xposition Yposition Zposition Zrotation Xrotation Yrotation 
					JOINT Toes_L
					{
						OFFSET 11.7543 0.0 0.0
						CHANNELS 6 Xposition Yposition Zposition Zrotation Xrotation Yrotation 
						End Site
						{
							OFFSET 0.0 0.0 0.0
						}
					}
				}
			}
		}
		JOINT UpperLeg_R
		{
			OFFSET -2.19251 6.46944 0.0
			CHANNELS 6 Xposition Yposition Zposition Zrotation Xrotation Yrotation 
			JOINT LowerLeg_R
			{
				OFFSET -39.0811 -0.00228153 -0.0401928
				CHANNELS 6 Xposition Yposition Zposition Zrotation Xrotation Yrotation 
				JOINT Foot_R
				{
					OFFSET -40.9854 0.0 0.0
					CHANNELS 6 Xposition Yposition Zposition Zrotation Xrotation Yrotation 
					JOINT Toes_R
					{
						OFFSET -11.7543 0.0 0.0
						CHANNELS 6 Xposition Yposition Zposition Zrotation Xrotation Yrotation 
						End Site
						{
							OFFSET 0.0 0.0 0.0
						}
					}
				}
			}
		}
	}
}
MOTION
Frames:	9
Frame Time:	0.0333333
0.000000 0.000000 0.000000 0.000000 0.000000 -0.000000 -1.467020 91.149200 -1.822460 87.312300 -5.942890 5.861820 15.735700 0.000005 -0.000001 80.433500 85.240000 -82.736000 8.984550 -0.406207 -0.000000 1.597010 -1.457430 -4.580530 16.377300 -0.000001 -0.000001 6.891180 -3.059080 6.417260 6.456720 -0.000001 -0.000000 -0.301946 1.057350 -1.660350 12.994200 -0.242716 4.980390 -90.189200 0.498132 -69.208000 5.348090 -0.000007 -0.000001 -68.316200 21.403300 -4.968220 24.328600 0.000019 0.000005 5.863380 18.898900 -17.591600 22.291600 -0.000001 0.000005 13.921300 5.085800 5.437490 12.994500 -0.242716 -4.980390 93.780200 -9.224410 -67.600300 -5.348130 -0.000001 -0.000004 -69.064100 -68.635100 -111.404000 -24.328900 0.000322 -0.000009 -10.471000 -6.117490 -60.039800 -22.291500 -0.000108 -0.000004 34.814600 5.513030 -6.977260 -2.192480 -6.469440 -0.000000 -172.886000 -11.460000 -4.626180 39.081100 -0.000007 -0.000012 -0.211660 0.358796 30.537500 40.985400 -0.000006 -0.000013 -1.432500 2.357000 -69.465500 11.754300 -0.000000 0.000003 -0.000197 -0.001826 -16.646500 -2.192510 6.469440 -0.000001 179.137000 15.920500 176.500000 -39.081100 -0.002282 -0.040193 0.025856 -0.041724 28.389800 -40.985400 0.000008 0.000006 8.286910 14.496700 -70.255300 -11.754300 -0.000006 -0.000006 -0.002699 -0.037150 -18.083800
0.000000 0.000000 0.000000 0.000000 0.000000 -0.000000 -1.497980 91.208200 -1.901680 87.459200 -5.260240 5.479280 15.735700 0.000005 -0.000001 80.538000 85.230800 -82.613700 8.984550 -0.406207 -0.000000 1.620250 -1.455940 -4.127190 16.377300 -0.000001 -0.000001 7.189740 -3.303140 7.686150 6.456720 -0.000001 -0.000000 -0.442972 1.364600 -2.527000 12.994200 -0.242716 4.980390 -90.016600 0.043943 -69.312600 5.348090 -0.000007 -0.000001 -68.998600 20.846100 -4.767680 24.328600 0.000019 0.000005 6.096850 18.061700 -19.009500 22.291600 -0.000001 0.000005 15.303000 5.082230 5.517770 12.994500 -0.242716 -4.980390 94.752100 -10.480700 -65.440500 -5.348130 -0.000001 -0.000004 -79.919400 -70.302400 -126.852000 -24.328900 0.000322 -0.000009 -11.797000 -5.435190 -65.598800 -22.291500 -0.000108 -0.000004 42.545400 5.688330 -21.369900 -2.192480 -6.469440 -0.000000 -173.119000 -11.298500 -5.045770 39.081100 -0.000007 -0.000012 -0.206103 0.354075 30.203500 40.985400 -0.000006 -0.000013 -1.328280 2.770190 -69.169100 11.754300 -0.000000 0.000003 -0.000194 -0.001805 -16.645700 -2.192510 6.469440 -0.000001 179.154000 16.129200 176.164000 -39.081100 -0.002282 -0.040193 0.026710 -0.043663 28.192600 -40.985400 0.000008 0.000006 8.182760 14.060500 -70.059000 -11.754300 -0.000006 -0.000006 -0.002988 -0.040461 -18.218600
0.000000 0.000000 0.000000 0.000000 0.000000 -0.000000 -1.670270 91.231300 -1.920540 87.379800 -4.777000 5.397090 15.735700 0.000005 -0.000001 78.645100 85.272900 -80.732700 8.984550 -0.406207 -0.000000 1.475630 -1.745940 -4.149230 16.377300 -0.000001 -0.000001 7.755390 -3.471360 8.455780 6.456720 -0.000001 -0.000000 -0.498471 1.644530 -2.407470 12.994200 -0.242716 4.980390 -89.789600 -0.559475 -69.389400 5.348090 -0.000007 -0.000001 -69.843000 19.209200 -3.938860 24.328600 0.000019 0.000005 6.731800 18.106800 -20.796100 22.291600 -0.000001 0.000005 16.506100 5.066570 5.868780 12.994500 -0.242716 -4.980390 95.002700 -10.209900 -63.717300 -5.348130 -0.000001 -0.000004 -79.198200 -66.526700 -126.913000 -24.328900 0.000322 -0.000009 -10.413000 -4.511410 -66.823500 -22.291500 -0.000108 -0.000004 58.266900 5.618250 -29.287400 -2.192480 -6.469440 -0.000000 -172.935000 -11.118600 -5.182390 39.081100 -0.000007 -0.000012 -0.205251 0.353821 30.118300 40.985400 -0.000006 -0.000013 -1.362210 3.128940 -69.041900 11.754300 -0.000000 0.000003 -0.000179 -0.001688 -16.641400 -2.192510 6.469440 -0.000001 179.333000 16.630300 176.184000 -39.081100 -0.002282 -0.040193 0.026885 -0.044236 28.059000 -40.985400 0.000008 0.000006 8.264900 14.021200 -69.966300 -11.754300 -0.000006 -0.000006 -0.003002 -0.040627 -18.225300
0.000000 0.000000 0.000000 0.000000 0.000000 -0.000000 -1.816790 91.165200 -1.907380 87.129400 -5.109340 5.781400 15.735700 0.000005 -0.000001 78.276100 85.207100 -80.421400 8.984550 -0.406207 -0.000000 1.590100 -1.831210 -4.261350 16.377300 -0.000001 -0.000001 7.640980 -3.366040 7.857090 6.456720 -0.000001 -0.000000 -0.522544 1.383990 -1.962810 12.994200 -0.242716 4.980390 -89.775500 -0.599486 -69.472100 5.348090 -0.000007 -0.000001 -70.325900 18.053700 -3.418690 24.328600 0.000019 0.000005 6.693480 17.224300 -21.619700 22.291600 -0.000001 0.000005 17.553400 5.069560 5.803120 12.994500 -0.242716 -4.980390 94.182700 -8.934770 -64.786300 -5.348130 -0.000001 -0.000004 -65.919500 -65.565500 -111.647000 -24.328900 0.000322 -0.000009 -13.310800 -7.427860 -61.353800 -22.291500 -0.000108 -0.000004 56.279100 5.669290 -25.460200 -2.192480 -6.469440 -0.000000 -172.496000 -11.044200 -4.897980 39.081100 -0.000007 -0.000012 -0.214673 0.363748 30.548200 40.985400 -0.000006 -0.000013 -1.555990 2.839460 -69.300800 11.754300 -0.000000 0.000003 -0.000177 -0.001672 -16.640900 -2.192510 6.469440 -0.000001 179.463000 16.978500 176.522000 -39.081100 -0.002282 -0.040193 0.026110 -0.042368 28.291800 -40.985400 0.000008 0.000006 8.499940 14.619100 -70.154100 -11.754300 -0.000006 -0.000006 -0.002933 -0.039839 -18.193300
0.000000 0.000000 0.000000 0.000000 0.000000 -0.000000 -1.895620 91.059700 -1.914980 86.742100 -6.284300 6.390790 15.735700 0.000005 -0.000001 81.281700 85.103600 -83.624900 8.984550 -0.406207 -0.000000 1.890580 -1.363380 -4.659660 16.377300 -0.000001 -0.000001 6.833960 -2.771260 6.403020 6.456720 -0.000001 -0.000000 -0.775543 1.385250 -1.791760 12.994200 -0.242716 4.980390 -90.035600 0.094376 -69.352100 5.348090 -0.000007 -0.000001 -68.945700 19.330800 -4.224630 24.328600 0.000019 0.000005 5.612310 14.806800 -21.032300 22.291600 -0.000001 0.000005 17.460400 5.097760 5.163970 12.994500 -0.242716 -4.980390 93.070600 -7.393110 -67.371400 -5.348130 -0.000001 -0.000004 -48.888300 -63.383000 -90.030300 -24.328900 0.000322 -0.000009 -12.514900 -10.499600 -50.611600 -22.291500 -0.000108 -0.000004 40.645600 5.668910 -15.537400 -2.192480 -6.469440 -0.000000 -171.983000 -10.860900 -4.375250 39.081100 -0.000007 -0.000012 -0.227385 0.374880 31.239400 40.985400 -0.000006 -0.000013 -1.936590 1.695480 -69.773100 11.754300 -0.000000 0.000003 -0.000190 -0.001774 -16.644600 -2.192510 6.469440 -0.000001 179.602000 17.060100 176.980000 -39.081100 -0.002282 -0.040193 0.024695 -0.039093 28.685900 -40.985400 0.000008 0.000006 8.856920 15.734700 -70.429600 -11.754300 -0.000006 -0.000006 -0.002875 -0.039183 -18.166600
0.000000 0.000000 0.000000 0.000000 0.000000 -0.000000 -2.014040 90.939600 -1.955670 86.272500 -7.433250 6.905860 15.735700 0.000005 -0.000001 84.804700 85.053300 -87.525300 8.984550 -0.406207 -0.000000 2.074620 -0.760265 -5.422200 16.377300 -0.000001 -0.000001 5.824040 -1.797330 4.347980 6.456720 -0.000001 -0.000000 -1.091510 1.598290 -1.265250 12.994200 -0.242716 4.980390 -90.378800 0.992642 -69.110600 5.348090 -0.000007 -0.000001 -66.499000 20.325700 -5.433230 24.328600 0.000019 0.000005 5.647100 14.849800 -21.097400 22.291600 -0.000001 0.000005 15.211400 5.122670 4.587390 12.994500 -0.242716 -4.980390 92.118400 -6.141430 -70.929900 -5.348130 -0.000001 -0.000004 -31.510200 -57.550100 -66.264500 -24.328900 0.000322 -0.000009 -10.701500 -13.976700 -38.051800 -22.291500 -0.000108 -0.000004 24.516700 5.413920 -3.098180 -2.192480 -6.469440 -0.000000 -171.309000 -10.914400 -3.985620 39.081100 -0.000007 -0.000012 -0.243951 0.389944 32.030700 40.985400 -0.000006 -0.000013 -2.288900 0.866039 -70.265300 11.754300 -0.000000 0.000003 -0.000212 -0.001945 -16.650800 -2.192510 6.469440 -0.000001 179.916000 17.015000 177.391000 -39.081100 -0.002282 -0.040193 0.022370 -0.034415 28.986400 -40.985400 0.000008 0.000006 9.164130 16.711600 -70.762400 -11.754300 -0.000006 -0.000006 -0.002652 -0.036596 -18.061300
0.000000 0.000000 0.000000 0.000000 0.000000 -0.000000 -2.195190 90.847600 -2.027160 85.952800 -8.221400 7.198920 15.735700 0.000005 -0.000001 87.663400 85.081200 -90.927200 8.984550 -0.406207 -0.000000 2.065050 -0.238683 -6.516940 16.377300 -0.000001 -0.000001 4.630320 -0.851724 2.195690 6.456720 -0.000001 -0.000000 -1.407140 1.758190 -0.690830 12.994200 -0.242716 4.980390 -90.618800 1.606820 -68.935200 5.348090 -0.000007 -0.000001 -64.471800 19.472300 -6.063710 24.328600 0.000019 0.000005 6.971780 17.122600 -22.554400 22.291600 -0.000001 0.000005 13.534700 5.121360 4.619880 12.994500 -0.242716 -4.980390 91.347200 -4.896580 -74.600500 -5.348130 -0.000001 -0.000004 -24.974300 -47.485900 -50.456400 -24.328900 0.000322 -0.000009 -12.272100 -23.457900 -28.663000 -22.291500 -0.000108 -0.000004 17.961900 5.040720 6.461240 -2.192480 -6.469440 -0.000000 -170.659000 -11.443200 -3.775620 39.081100 -0.000007 -0.000012 -0.254646 0.398323 32.591000 40.985400 -0.000006 -0.000013 -2.468230 0.845847 -70.554400 11.754300 -0.000000 0.000003 -0.000226 -0.002049 -16.654600 -2.192510 6.469440 -0.000001 -179.717000 16.797600 177.598000 -39.081100 -0.002282 -0.040193 0.022055 -0.033547 29.203400 -40.985400 0.000008 0.000006 9.487840 17.097000 -71.073600 -11.754300 -0.000006 -0.000006 -0.002691 -0.037060 -18.080200
0.000000 0.000000 0.000000 0.000000 0.000000 -0.000000 -2.440750 90.828900 -2.162360 85.875900 -8.185460 7.088900 15.735700 0.000005 -0.000001 89.801800 85.181200 -93.626100 8.984550 -0.406207 -0.000000 1.888410 0.162466 -7.644160 16.377300 -0.000001 -0.000001 3.092160 0.194323 0.056609 6.456720 -0.000001 -0.000000 -1.805280 1.723410 -0.485137 12.994200 -0.242716 4.980390 -90.768600 1.979090 -68.772200 5.348090 -0.000007 -0.000001 -63.009800 18.866200 -6.801310 24.328600 0.000019 0.000005 7.107680 16.783300 -23.356200 22.291600 -0.000001 0.000005 14.361800 5.121570 4.614770 12.994500 -0.242716 -4.980390 90.570000 -2.531170 -77.312800 -5.348130 -0.000001 -0.000004 -30.922100 -42.805000 -42.783000 -24.328900 0.000322 -0.000009 -13.998000 -30.033100 -26.476900 -22.291500 -0.000108 -0.000004 19.713300 4.652150 13.970100 -2.192480 -6.469440 -0.000000 -170.419000 -11.458900 -4.028610 39.081100 -0.000007 -0.000012 -0.258575 0.402528 32.716200 40.985400 -0.000006 -0.000013 -2.627620 0.922018 -70.491000 11.754300 -0.000000 0.000003 -0.000213 -0.001950 -16.651000 -2.192510 6.469440 -0.000001 -179.439000 17.051700 177.419000 -39.081100 -0.002282 -0.040193 0.022794 -0.034813 29.243400 -40.985400 0.000008 0.000006 9.774860 17.185500 -71.187400 -11.754300 -0.000006 -0.000006 -0.002780 -0.038089 -18.122100
0.000000 0.000000 0.000000 0.000000 0.000000 -0.000000 -2.713230 90.801800 -2.262360 85.887300 -7.061420 7.022440 15.735700 0.000005 -0.000001 89.843900 85.214400 -93.906200 8.984550 -0.406207 -0.000000 1.824720 0.184134 -8.119820 16.377300 -0.000001 -0.000001 1.950720 0.818295 -1.632590 6.456720 -0.000001 -0.000000 -2.330260 1.737680 -1.394420 12.994200 -0.242716 4.980390 -90.876100 2.267320 -68.867300 5.348090 -0.000007 -0.000001 -62.922800 17.912000 -7.011310 24.328600 0.000019 0.000005 6.730070 15.638600 -23.641700 22.291600 -0.000001 0.000005 15.756900 5.126320 4.504200 12.994500 -0.242716 -4.980390 90.014100 -0.064869 -77.639300 -5.348130 -0.000001 -0.000004 -37.633000 -42.262500 -38.998500 -24.328900 0.000322 -0.000009 -17.363900 -36.187300 -27.904600 -22.291500 -0.000108 -0.000004 23.337700 4.434700 17.659800 -2.192480 -6.469440 -0.000000 -170.361000 -10.713700 -4.506380 39.081100 -0.000007 -0.000012 -0.259983 0.402354 32.869100 40.985400 -0.000006 -0.000013 -2.689440 1.338600 -70.355600 11.754300 -0.000000 0.000003 -0.000231 -0.002092 -16.656100 -2.192510 6.469440 -0.000001 -179.330000 17.838000 177.337000 -39.081100 -0.002282 -0.040193 0.010686 -0.013157 29.295400 -40.985400 0.000008 0.000006 9.660010 16.850900 -71.238500 -11.754300 -0.000006 -0.000006 -0.002691 -0.037058 -18.080100
